<?xml version="1.0" encoding="UTF-8"?>
<!DOCTYPE svg PUBLIC "-//W3C//DTD SVG 1.1//EN" "http://www.w3.org/Graphics/SVG/1.1/DTD/svg11.dtd">
<!-- Creator: CorelDRAW 2020 (64 Bit) -->
<svg xmlns="http://www.w3.org/2000/svg" xml:space="preserve" width="184.129mm" height="184.117mm" version="1.1" style="shape-rendering:geometricPrecision; text-rendering:geometricPrecision; image-rendering:optimizeQuality; fill-rule:evenodd; clip-rule:evenodd"
viewBox="0 0 5088.55 5088.2"
 xmlns:xlink="http://www.w3.org/1999/xlink"
 xmlns:xodm="http://www.corel.com/coreldraw/odm/2003">
 <defs>
  <style type="text/css">
   <![CDATA[
    .fil0 {fill:#36357E}
   ]]>
  </style>
 </defs>
 <g id="Camada_x0020_1">
  <metadata id="CorelCorpID_0Corel-Layer"/>
  <path class="fil0" d="M587.94 15.21c-338.57,54.89 -577.11,314.36 -581.9,693.88 -3.57,283.25 -15.42,3637.17 8.89,3798.36 49.83,330.36 324.59,569.31 694.37,575.09 812.2,12.7 1713.8,0.08 2536.93,0.08 225.91,0 1112.79,12.89 1263.14,-9.78 327.66,-49.41 568.1,-322.7 573.12,-693.72 3.72,-274.83 15.17,-3642.71 -8.5,-3796.7 -51.31,-333.8 -322.67,-570.99 -694.68,-576.78 -812.59,-12.64 -1713.6,-0.08 -2536.99,-0.08 -216.46,0 -1114.95,-12.96 -1254.38,9.65zm2124 2324.82l-3.6 -288.59 -601.99 0.62 0.01 1940.22 602.31 6.18c0,-304.39 0.06,-608.44 0,-912.5 -0.03,-155.06 -9.02,-262.68 67.98,-383.23 52.48,-82.16 149.3,-166.28 286.45,-179.8 139.85,-13.79 245.55,76.29 295.65,154.65 71.39,111.65 59.09,248.95 59.09,396.07 -0.01,308.44 0,616.88 0,925.32l602.31 -0.26c-0,-297.35 -0,-592.73 -0,-888.11 0,-267.15 45.49,-605.68 -92.81,-804.19 -200.51,-287.78 -744.85,-337.34 -1003.28,-195.07 -72.75,40.05 -194.52,145.19 -212.12,228.7zm-1614.06 1658.28l596.67 0 5.82 -1946.87 -596.93 0 -5.55 1946.87zm259.57 -2927.37c-426.96,57.39 -344.98,703.98 88.55,644.65 164.23,-22.47 300.7,-167.97 275.43,-366.15 -20.94,-164.16 -173.72,-304.08 -363.98,-278.5z"/>
 </g>
</svg>
