<svg width="204" height="22" viewBox="0 0 204 22" fill="none" xmlns="http://www.w3.org/2000/svg">
<path d="M0.625 7.30966V4.45455H12.919V7.30966H8.50852V19H5.04261V7.30966H0.625ZM14.636 19V4.45455H24.7781V7.30966H18.1516V10.2926H24.2596V13.1548H18.1516V16.1449H24.7781V19H14.636ZM40.1829 9.72443H36.6317C36.5844 9.35985 36.4873 9.03078 36.3406 8.73722C36.1938 8.44366 35.9996 8.19271 35.7582 7.98438C35.5167 7.77604 35.2302 7.61742 34.8988 7.50852C34.5721 7.39489 34.2099 7.33807 33.8121 7.33807C33.1067 7.33807 32.4982 7.51089 31.9869 7.85653C31.4802 8.20218 31.0896 8.7017 30.815 9.35511C30.5451 10.0085 30.4102 10.7992 30.4102 11.7273C30.4102 12.6932 30.5475 13.5028 30.8221 14.1562C31.1014 14.8049 31.4921 15.295 31.994 15.6264C32.5006 15.9531 33.0996 16.1165 33.7908 16.1165C34.1791 16.1165 34.5318 16.0668 34.8491 15.9673C35.171 15.8679 35.4528 15.7235 35.6942 15.5341C35.9405 15.34 36.1417 15.1056 36.2979 14.831C36.4589 14.5516 36.5702 14.2367 36.6317 13.8864L40.1829 13.9077C40.1213 14.5516 39.9343 15.1861 39.6218 15.8111C39.314 16.4361 38.8903 17.0066 38.3505 17.5227C37.8107 18.0341 37.1526 18.4413 36.3761 18.7443C35.6043 19.0473 34.7189 19.1989 33.7198 19.1989C32.4035 19.1989 31.2246 18.91 30.1829 18.3324C29.146 17.75 28.3268 16.9025 27.7255 15.7898C27.1242 14.6771 26.8235 13.3229 26.8235 11.7273C26.8235 10.1269 27.1289 8.77036 27.7397 7.65767C28.3505 6.54498 29.1767 5.69981 30.2184 5.12216C31.2601 4.54451 32.4272 4.25568 33.7198 4.25568C34.6005 4.25568 35.4149 4.37879 36.163 4.625C36.9111 4.86648 37.5692 5.22159 38.1374 5.69034C38.7056 6.15436 39.1673 6.72491 39.5224 7.40199C39.8775 8.07907 40.0977 8.85322 40.1829 9.72443ZM42.1946 19V4.45455H45.7102V10.2926H51.4418V4.45455H54.9503V19H51.4418V13.1548H45.7102V19H42.1946ZM69.5348 4.45455V19H66.5518L60.7635 10.6051H60.6712V19H57.1555V4.45455H60.1811L65.9055 12.8352H66.0263V4.45455H69.5348ZM75.261 4.45455V19H71.7454V4.45455H75.261ZM90.6712 9.72443H87.12C87.0727 9.35985 86.9756 9.03078 86.8288 8.73722C86.6821 8.44366 86.4879 8.19271 86.2464 7.98438C86.005 7.77604 85.7185 7.61742 85.3871 7.50852C85.0604 7.39489 84.6982 7.33807 84.3004 7.33807C83.5949 7.33807 82.9865 7.51089 82.4751 7.85653C81.9685 8.20218 81.5779 8.7017 81.3033 9.35511C81.0334 10.0085 80.8984 10.7992 80.8984 11.7273C80.8984 12.6932 81.0357 13.5028 81.3104 14.1562C81.5897 14.8049 81.9804 15.295 82.4822 15.6264C82.9889 15.9531 83.5878 16.1165 84.2791 16.1165C84.6674 16.1165 85.0201 16.0668 85.3374 15.9673C85.6593 15.8679 85.9411 15.7235 86.1825 15.5341C86.4287 15.34 86.63 15.1056 86.7862 14.831C86.9472 14.5516 87.0585 14.2367 87.12 13.8864L90.6712 13.9077C90.6096 14.5516 90.4226 15.1861 90.1101 15.8111C89.8023 16.4361 89.3786 17.0066 88.8388 17.5227C88.299 18.0341 87.6409 18.4413 86.8643 18.7443C86.0926 19.0473 85.2071 19.1989 84.2081 19.1989C82.8918 19.1989 81.7128 18.91 80.6712 18.3324C79.6342 17.75 78.8151 16.9025 78.2138 15.7898C77.6125 14.6771 77.3118 13.3229 77.3118 11.7273C77.3118 10.1269 77.6172 8.77036 78.228 7.65767C78.8388 6.54498 79.665 5.69981 80.7067 5.12216C81.7483 4.54451 82.9155 4.25568 84.2081 4.25568C85.0888 4.25568 85.9032 4.37879 86.6513 4.625C87.3994 4.86648 88.0575 5.22159 88.6257 5.69034C89.1939 6.15436 89.6555 6.72491 90.0107 7.40199C90.3658 8.07907 90.5859 8.85322 90.6712 9.72443ZM95.4581 19H91.6797L96.5874 4.45455H101.268L106.175 19H102.397L98.9808 8.11932H98.8672L95.4581 19ZM94.9538 13.2756H102.852V15.946H94.9538V13.2756ZM107.741 19V4.45455H111.257V16.1449H117.308V19H107.741ZM128.084 8.09091C128.013 7.09659 127.632 6.27983 126.941 5.64062C126.254 5.00142 125.347 4.68182 124.221 4.68182C123.482 4.68182 122.821 4.82386 122.239 5.10795C121.657 5.39204 121.197 5.78267 120.861 6.27983C120.525 6.77225 120.357 7.33807 120.357 7.97727C120.357 8.34659 120.418 8.6875 120.542 9C120.665 9.3125 120.852 9.59896 121.103 9.85938C121.358 10.1151 121.678 10.3471 122.061 10.5554C122.45 10.759 122.904 10.9413 123.425 11.1023L125.073 11.6136C125.703 11.8078 126.247 12.0256 126.706 12.267C127.166 12.5085 127.544 12.7808 127.843 13.0838C128.146 13.3821 128.371 13.7159 128.517 14.0852C128.664 14.4498 128.738 14.857 128.738 15.3068C128.738 16.0644 128.543 16.7391 128.155 17.331C127.767 17.9228 127.225 18.3868 126.529 18.723C125.833 19.0592 125.025 19.2273 124.107 19.2273C123.221 19.2273 122.447 19.0734 121.784 18.7656C121.122 18.4531 120.596 18.0246 120.208 17.4801C119.824 16.9309 119.609 16.3011 119.561 15.5909H120.016C120.063 16.2159 120.26 16.7675 120.605 17.2457C120.951 17.724 121.42 18.098 122.012 18.3679C122.608 18.6378 123.307 18.7727 124.107 18.7727C124.94 18.7727 125.669 18.6283 126.294 18.3395C126.924 18.0459 127.412 17.6387 127.757 17.1179C128.108 16.5971 128.283 15.9934 128.283 15.3068C128.283 14.786 128.169 14.3291 127.942 13.9361C127.715 13.5384 127.357 13.188 126.87 12.8849C126.382 12.5819 125.745 12.3097 124.959 12.0682L123.311 11.5568C122.17 11.197 121.316 10.7211 120.748 10.1293C120.184 9.53741 119.902 8.82008 119.902 7.97727C119.902 7.26231 120.089 6.62311 120.463 6.05966C120.837 5.49148 121.349 5.04403 121.998 4.71733C122.651 4.39062 123.392 4.22727 124.221 4.22727C125.054 4.22727 125.785 4.39299 126.415 4.72443C127.045 5.05587 127.544 5.51278 127.914 6.09517C128.283 6.67756 128.491 7.3428 128.539 8.09091H128.084ZM132.546 19V4.45455H133.001V11.5H142.262V4.45455H142.717V19H142.262V11.9545H133.001V19H132.546ZM146.117 19H145.634L150.833 4.45455H151.458L156.657 19H156.174L151.174 5.02273H151.117L146.117 19ZM147.765 13.6307H154.526V14.0852H147.765V13.6307ZM159.577 19V4.45455H163.839C164.653 4.45455 165.373 4.62737 165.998 4.97301C166.628 5.31865 167.12 5.80161 167.475 6.42188C167.835 7.04214 168.015 7.76894 168.015 8.60227C168.015 9.42614 167.835 10.1482 167.475 10.7685C167.12 11.384 166.628 11.8646 165.998 12.2102C165.373 12.5511 164.653 12.7216 163.839 12.7216H159.805V12.267H163.839C164.568 12.267 165.212 12.1155 165.771 11.8125C166.329 11.5095 166.767 11.0833 167.085 10.5341C167.402 9.98485 167.56 9.34091 167.56 8.60227C167.56 7.8589 167.402 7.21023 167.085 6.65625C166.767 6.10227 166.329 5.67377 165.771 5.37074C165.212 5.06297 164.568 4.90909 163.839 4.90909H160.032V19H159.577ZM165.117 12.3807L168.697 19H168.185L164.606 12.3807H165.117ZM171.882 19V4.45455H179.638V4.90909H172.337V11.5H179.212V11.9545H172.337V18.5455H179.837V19H171.882Z" fill="black"/>
<path d="M188 5L195 12.5L188 20" stroke="url(#paint0_linear_15_86)" stroke-width="4" stroke-linecap="round" stroke-linejoin="round"/>
<path d="M195 5L202 12.5L195 20" stroke="url(#paint1_linear_15_86)" stroke-width="4" stroke-linecap="round" stroke-linejoin="round"/>
<defs>
<linearGradient id="paint0_linear_15_86" x1="191.5" y1="5" x2="191.5" y2="20" gradientUnits="userSpaceOnUse">
<stop stop-color="#FF4E50"/>
<stop offset="1" stop-color="#F9D423"/>
</linearGradient>
<linearGradient id="paint1_linear_15_86" x1="198.5" y1="5" x2="198.5" y2="20" gradientUnits="userSpaceOnUse">
<stop stop-color="#FF4E50"/>
<stop offset="1" stop-color="#F9D423"/>
</linearGradient>
</defs>
</svg>