<?xml version="1.0" encoding="UTF-8"?>
<!DOCTYPE svg PUBLIC "-//W3C//DTD SVG 1.1//EN" "http://www.w3.org/Graphics/SVG/1.1/DTD/svg11.dtd">
<!-- Creator: CorelDRAW 2020 (64 Bit) -->
<svg xmlns="http://www.w3.org/2000/svg" xml:space="preserve" width="196.39mm" height="181.846mm" version="1.1" style="shape-rendering:geometricPrecision; text-rendering:geometricPrecision; image-rendering:optimizeQuality; fill-rule:evenodd; clip-rule:evenodd"
viewBox="0 0 19624.73 18171.45"
 xmlns:xlink="http://www.w3.org/1999/xlink"
 xmlns:xodm="http://www.corel.com/coreldraw/odm/2003">
 <defs>
  <style type="text/css">
   <![CDATA[
    .fil0 {fill:black}
   ]]>
  </style>
 </defs>
 <g id="Camada_x0020_1">
  <metadata id="CorelCorpID_0Corel-Layer"/>
  <g id="_2270010897920">
   <path class="fil0" d="M6808.7 13897.55c650.28,-17.34 1704.09,69.81 2290.61,-11.4 876.47,-121.36 718.24,-1081.82 718.24,-1561.74 0,-693.05 -42.99,-4195.85 14.16,-4567.6 1342.47,-24.87 2701.23,11.2 4043.46,-4.74 186.78,-2.22 221.97,-35.37 237.77,127.73l-3.17 4444.61c0,1040.95 28.29,1793.99 -397.4,2593.54 -331.98,623.51 -810.17,1184.41 -1428.7,1527.77 -652.99,362.48 -1549.1,601.01 -2493.34,439.94 -1193.39,-203.58 -2031.56,-898.45 -2572.87,-1854.17 -156.03,-275.49 -371.55,-747.56 -408.75,-1133.94zm8526.61 -6137.1c790.95,-47.61 1965.43,-4.88 2840.88,-8.19 293.84,-1.11 229.93,37.71 226.54,340.93l-0.56 3455.68c-0.05,648.34 -27.77,1271.56 -549.14,1761.09 -720.52,676.53 -1803.46,715.71 -2446.63,123.01 -138.42,-127.56 -78.39,-856.3 -78.39,-1073.3 0.01,-929 -46.46,-3923 7.31,-4599.22zm-13027.81 -1981.04l5210.85 -9.33 7.03 1521.98 -1822.01 5.79c-95.19,480.64 23.48,3967.54 -24.2,4906.94l-1522.85 4.92 -5.98 -4908.81 -1842.16 -5.29 -0.68 -1516.2zm8109.49 -4541.4c886.42,-2.05 1642.72,698.1 1654,1602.99 11.16,896.1 -749.98,1650.9 -1618.48,1658.37 -912.2,7.84 -1651.91,-721.76 -1654.64,-1622.17 -2.76,-907.13 699.02,-1637.05 1619.12,-1639.18zm-2577.23 2841.42c-909.57,52.47 -1961.72,5.92 -2886.85,5.92 -421.89,0 -4070.98,-33.08 -4308.5,20.32 -359.49,80.81 -619.97,398.2 -631.6,814.4 -26.85,960.23 -0.29,1962.41 -0.29,2927.33l0 4336.02c0,437.53 -71.3,1010.93 126.63,1324.49 219.01,346.97 550.21,387.53 1041.76,387.04 1303.88,-1.29 3209.78,-50.04 4382.71,4.85 186.02,971.59 504.88,1856.14 1168.1,2568.42 84.3,90.53 158.38,182.03 274.54,289.25 801.76,740.04 1666.73,1269.5 2937.79,1391.47 1332.9,127.91 2473.86,-304.45 3354.61,-898.18 812.86,-547.97 1392.22,-1397.51 1743.31,-2306.87l98.82 -197.84c364.08,126.13 701.83,271.23 1127.88,312.15 419.99,40.33 935.36,-18.33 1278.29,-153.27 760.84,-299.37 1207.63,-664.84 1608.77,-1282.64 467.24,-719.61 460.4,-1419.33 460.4,-2425.93 0,-963.56 0,-1927.12 0,-2890.68 0,-866.19 181.82,-1770.68 -1126.3,-1767.74 -963.51,2.18 -1927.23,0.35 -2890.76,0.35 -1909.87,0 -3860.97,39.24 -5765.64,-1.97l-17.66 -859.14c431.62,10.44 663.38,87.09 1126.05,5.65 1560.22,-274.64 2660.95,-1803.63 2236.84,-3594.06 -395.92,-1671.45 -2683.14,-2876.27 -4525.6,-1469.36 -391.53,298.97 -810.38,856.09 -966.61,1433.79 -277.33,1025.54 -36.68,1613.1 153.32,2026.24z"/>
   <path class="fil0" d="M16562.39 2915.23c513.63,-187.96 1050.03,140.76 1173.04,575.88 151.56,536.07 -119.21,998.76 -555.46,1138.42 -1213.3,388.43 -1767.31,-1293.57 -617.58,-1714.31zm-23.64 -1255.67c-1067.83,173.5 -1994.11,1142.83 -1805.77,2448.25 154.32,1069.54 1174.75,1951.09 2445.11,1787.08 1093.51,-141.17 1992.8,-1194.89 1799.67,-2447.8 -164.24,-1065.46 -1181.15,-1991.9 -2439.02,-1787.53z"/>
  </g>
 </g>
</svg>
