<?xml version="1.0" encoding="UTF-8"?>
<!DOCTYPE svg PUBLIC "-//W3C//DTD SVG 1.1//EN" "http://www.w3.org/Graphics/SVG/1.1/DTD/svg11.dtd">
<!-- Creator: CorelDRAW 2020 (64 Bit) -->
<svg xmlns="http://www.w3.org/2000/svg" xml:space="preserve" width="174.262mm" height="174.289mm" version="1.1" style="shape-rendering:geometricPrecision; text-rendering:geometricPrecision; image-rendering:optimizeQuality; fill-rule:evenodd; clip-rule:evenodd"
viewBox="0 0 9740.94 9742.47"
 xmlns:xlink="http://www.w3.org/1999/xlink"
 xmlns:xodm="http://www.corel.com/coreldraw/odm/2003">
 <defs>
  <style type="text/css">
   <![CDATA[
    .fil0 {fill:#36357E;fill-rule:nonzero}
   ]]>
  </style>
 </defs>
 <g id="Camada_x0020_1">
  <metadata id="CorelCorpID_0Corel-Layer"/>
  <path class="fil0" d="M7374.19 5839.29c-29.81,-49.24 -107.69,-77.88 -224.43,-136.4 -118.08,-58.28 -694.42,-339.21 -801.87,-378.06 -106.84,-38.85 -185.82,-58.46 -263.71,58.28 -77.7,115.88 -302.31,378.3 -371.15,456.19 -68.66,76.78 -136.4,86.92 -254.42,28.46 -116.73,-57.17 -494.61,-180.63 -942.8,-577.26 -348.25,-308.12 -583.06,-688.56 -651.9,-805.54 -68.6,-115.45 -6.9,-178.67 51.8,-237.13l176.29 -202.62 116.73 -194.62 -9.04 -204.15c-29.81,-58.27 -264.56,-631.2 -361.87,-863.63 -97.55,-232.79 -195.96,-193.76 -263.71,-193.76l-225.53 -10.32c-78.07,0 -205.19,29.75 -312.88,145.63 -106.59,116.73 -410.19,398.58 -410.19,970.4 0,572.74 420.57,1124.89 478.85,1203.87 58.46,76.84 811.34,1290 2002.69,1755.05 1192.7,465.22 1192.7,310.5 1408.02,291.07 214.29,-19.6 691.86,-280.75 790.45,-553.25 97.31,-271.46 97.31,-504.08 68.66,-552.21zm-2415.14 -5083.17c-2217.65,0 -4020.77,1789.38 -4020.77,3990.16 0,873.1 283.92,1681.87 765.16,2338.3l-501.94 1482.3 1545.71 -491.37c634.61,417.1 1395.32,659.91 2211.84,659.91 2217.22,0 4021.44,-1789.56 4021.44,-3989.13 0,-2200.79 -1804.22,-3990.16 -4021.44,-3990.16zm4781.89 3990.16c0,2620.14 -2139.76,4745 -4781.89,4745 -838.34,0 -1626.4,-214.04 -2311.72,-589.72l-2647.32 840.91 862.53 -2545.68c-435.3,-714.88 -686.23,-1554.5 -686.23,-2450.51 0,-2621.17 2141.04,-4746.28 4782.75,-4746.28 2642.13,0 4781.89,2125.11 4781.89,4746.28z"/>
 </g>
</svg>
